M48
;DRILL file {KiCad (5.0-dev-4158-ga83669ab1)} date 03/07/18 22:38:00
;FORMAT={-:-/ absolute / metric / decimal}
FMAT,2
METRIC,TZ
T1C0.300
T2C1.000
%
G90
G05
M71
T1
X170.18Y-49.784
X171.45Y-46.482
X172.466Y-44.831
X173.736Y-49.276
X173.736Y-50.165
X174.1Y-47.1
X174.1Y-48.
X177.038Y-51.054
X177.7Y-48.6
X178.7Y-49.1
T2
X167.64Y-33.02
X167.64Y-35.56
X167.64Y-38.1
X167.64Y-40.64
X167.64Y-43.18
X167.64Y-45.72
X167.64Y-48.26
X167.64Y-50.8
X180.34Y-33.02
X180.34Y-35.56
X180.34Y-38.1
X180.34Y-40.64
X180.34Y-43.18
X180.34Y-45.72
X180.34Y-48.26
X180.34Y-50.8
T0
M30
