G04 #@! TF.GenerationSoftware,KiCad,Pcbnew,(5.0-dev-4158-ga83669ab1)*
G04 #@! TF.CreationDate,2018-03-07T22:38:40+01:00*
G04 #@! TF.ProjectId,bbq10breakout,6262713130627265616B6F75742E6B69,rev?*
G04 #@! TF.SameCoordinates,Original*
G04 #@! TF.FileFunction,Copper,L2,Bot,Signal*
G04 #@! TF.FilePolarity,Positive*
%FSLAX46Y46*%
G04 Gerber Fmt 4.6, Leading zero omitted, Abs format (unit mm)*
G04 Created by KiCad (PCBNEW (5.0-dev-4158-ga83669ab1)) date 03/07/18 22:38:40*
%MOMM*%
%LPD*%
G01*
G04 APERTURE LIST*
%ADD10R,1.700000X1.700000*%
%ADD11O,1.700000X1.700000*%
%ADD12C,0.450000*%
%ADD13C,0.177800*%
%ADD14C,0.254000*%
G04 APERTURE END LIST*
D10*
X180340000Y-33020000D03*
D11*
X180340000Y-35560000D03*
X180340000Y-38100000D03*
X180340000Y-40640000D03*
X180340000Y-43180000D03*
X180340000Y-45720000D03*
X180340000Y-48260000D03*
X180340000Y-50800000D03*
X167640000Y-50800000D03*
X167640000Y-48260000D03*
X167640000Y-45720000D03*
X167640000Y-43180000D03*
X167640000Y-40640000D03*
X167640000Y-38100000D03*
X167640000Y-35560000D03*
D10*
X167640000Y-33020000D03*
D12*
X177038000Y-51054000D03*
X170180000Y-49784000D03*
X172466000Y-44831000D03*
X171450000Y-46482000D03*
X173736000Y-49276000D03*
X173736000Y-50165000D03*
X178700000Y-49100000D03*
X174100000Y-47100000D03*
X177700000Y-48600000D03*
X174100000Y-48000000D03*
D13*
X175768000Y-49276000D02*
X178435000Y-46609000D01*
X173736000Y-49276000D02*
X175768000Y-49276000D01*
X178435000Y-46609000D02*
X178435000Y-40005000D01*
X178435000Y-40005000D02*
X179490001Y-38949999D01*
X179490001Y-38949999D02*
X180340000Y-38100000D01*
X175387000Y-50165000D02*
X178816000Y-46736000D01*
X173736000Y-50165000D02*
X175387000Y-50165000D01*
X178816000Y-46736000D02*
X178816000Y-42164000D01*
X178816000Y-42164000D02*
X179490001Y-41489999D01*
X179490001Y-41489999D02*
X180340000Y-40640000D01*
X181610000Y-44450000D02*
X181610000Y-46355000D01*
X178700000Y-48781802D02*
X178700000Y-49100000D01*
X180975000Y-46990000D02*
X179991820Y-46990000D01*
X179991820Y-46990000D02*
X178700000Y-48281820D01*
X178700000Y-48281820D02*
X178700000Y-48781802D01*
X180340000Y-43180000D02*
X181610000Y-44450000D01*
X181610000Y-46355000D02*
X180975000Y-46990000D01*
X167640000Y-48260000D02*
X172940000Y-48260000D01*
X172940000Y-48260000D02*
X173875001Y-47324999D01*
X173875001Y-47324999D02*
X174100000Y-47100000D01*
X180340000Y-45720000D02*
X177700000Y-48360000D01*
X177700000Y-48360000D02*
X177700000Y-48600000D01*
X171300000Y-50800000D02*
X173875001Y-48224999D01*
X173875001Y-48224999D02*
X174100000Y-48000000D01*
X167640000Y-50800000D02*
X171300000Y-50800000D01*
D14*
G36*
X177528185Y-49459850D02*
X177870314Y-49460149D01*
X177911293Y-49443217D01*
X177970503Y-49586514D01*
X178212213Y-49828647D01*
X178528185Y-49959850D01*
X178870314Y-49960149D01*
X179186514Y-49829497D01*
X179250134Y-49765988D01*
X178938946Y-50231715D01*
X178825907Y-50800000D01*
X178938946Y-51368285D01*
X179260853Y-51850054D01*
X179477781Y-51995000D01*
X168502219Y-51995000D01*
X168719147Y-51850054D01*
X168937076Y-51523900D01*
X171299995Y-51523900D01*
X171300000Y-51523901D01*
X171531063Y-51477939D01*
X171577025Y-51468796D01*
X171811875Y-51311875D01*
X172875927Y-50247822D01*
X172875851Y-50335314D01*
X173006503Y-50651514D01*
X173248213Y-50893647D01*
X173564185Y-51024850D01*
X173906314Y-51025149D01*
X174222514Y-50894497D01*
X174228121Y-50888900D01*
X175386995Y-50888900D01*
X175387000Y-50888901D01*
X175618063Y-50842939D01*
X175664025Y-50833796D01*
X175898875Y-50676875D01*
X177236866Y-49338884D01*
X177528185Y-49459850D01*
X177528185Y-49459850D01*
G37*
X177528185Y-49459850D02*
X177870314Y-49460149D01*
X177911293Y-49443217D01*
X177970503Y-49586514D01*
X178212213Y-49828647D01*
X178528185Y-49959850D01*
X178870314Y-49960149D01*
X179186514Y-49829497D01*
X179250134Y-49765988D01*
X178938946Y-50231715D01*
X178825907Y-50800000D01*
X178938946Y-51368285D01*
X179260853Y-51850054D01*
X179477781Y-51995000D01*
X168502219Y-51995000D01*
X168719147Y-51850054D01*
X168937076Y-51523900D01*
X171299995Y-51523900D01*
X171300000Y-51523901D01*
X171531063Y-51477939D01*
X171577025Y-51468796D01*
X171811875Y-51311875D01*
X172875927Y-50247822D01*
X172875851Y-50335314D01*
X173006503Y-50651514D01*
X173248213Y-50893647D01*
X173564185Y-51024850D01*
X173906314Y-51025149D01*
X174222514Y-50894497D01*
X174228121Y-50888900D01*
X175386995Y-50888900D01*
X175387000Y-50888901D01*
X175618063Y-50842939D01*
X175664025Y-50833796D01*
X175898875Y-50676875D01*
X177236866Y-49338884D01*
X177528185Y-49459850D01*
G36*
X171000150Y-50076100D02*
X168937076Y-50076100D01*
X168719147Y-49749946D01*
X168389974Y-49530000D01*
X168719147Y-49310054D01*
X168937076Y-48983900D01*
X172092351Y-48983900D01*
X171000150Y-50076100D01*
X171000150Y-50076100D01*
G37*
X171000150Y-50076100D02*
X168937076Y-50076100D01*
X168719147Y-49749946D01*
X168389974Y-49530000D01*
X168719147Y-49310054D01*
X168937076Y-48983900D01*
X172092351Y-48983900D01*
X171000150Y-50076100D01*
G36*
X178891843Y-31922235D02*
X178842560Y-32170000D01*
X178842560Y-33870000D01*
X178891843Y-34117765D01*
X179032191Y-34327809D01*
X179242235Y-34468157D01*
X179304777Y-34480597D01*
X179260853Y-34509946D01*
X178938946Y-34991715D01*
X178825907Y-35560000D01*
X178938946Y-36128285D01*
X179260853Y-36610054D01*
X179590026Y-36830000D01*
X179260853Y-37049946D01*
X178938946Y-37531715D01*
X178825907Y-38100000D01*
X178907260Y-38508991D01*
X177923125Y-39493125D01*
X177766204Y-39727975D01*
X177766204Y-39727976D01*
X177711099Y-40005000D01*
X177711100Y-40005005D01*
X177711100Y-46309151D01*
X175468150Y-48552100D01*
X174764221Y-48552100D01*
X174828647Y-48487787D01*
X174959850Y-48171815D01*
X174960149Y-47829686D01*
X174844461Y-47549702D01*
X174959850Y-47271815D01*
X174960149Y-46929686D01*
X174829497Y-46613486D01*
X174587787Y-46371353D01*
X174271815Y-46240150D01*
X173929686Y-46239851D01*
X173613486Y-46370503D01*
X173371353Y-46612213D01*
X173240150Y-46928185D01*
X173240143Y-46936107D01*
X172640150Y-47536100D01*
X168937076Y-47536100D01*
X168719147Y-47209946D01*
X168389974Y-46990000D01*
X168719147Y-46770054D01*
X169041054Y-46288285D01*
X169154093Y-45720000D01*
X169041054Y-45151715D01*
X168719147Y-44669946D01*
X168389974Y-44450000D01*
X168719147Y-44230054D01*
X169041054Y-43748285D01*
X169154093Y-43180000D01*
X169041054Y-42611715D01*
X168719147Y-42129946D01*
X168389974Y-41910000D01*
X168719147Y-41690054D01*
X169041054Y-41208285D01*
X169154093Y-40640000D01*
X169041054Y-40071715D01*
X168719147Y-39589946D01*
X168389974Y-39370000D01*
X168719147Y-39150054D01*
X169041054Y-38668285D01*
X169154093Y-38100000D01*
X169041054Y-37531715D01*
X168719147Y-37049946D01*
X168389974Y-36830000D01*
X168719147Y-36610054D01*
X169041054Y-36128285D01*
X169154093Y-35560000D01*
X169041054Y-34991715D01*
X168719147Y-34509946D01*
X168675223Y-34480597D01*
X168849698Y-34408327D01*
X169028327Y-34229699D01*
X169125000Y-33996310D01*
X169125000Y-33305750D01*
X168966250Y-33147000D01*
X167767000Y-33147000D01*
X167767000Y-33167000D01*
X167513000Y-33167000D01*
X167513000Y-33147000D01*
X167493000Y-33147000D01*
X167493000Y-32893000D01*
X167513000Y-32893000D01*
X167513000Y-32873000D01*
X167767000Y-32873000D01*
X167767000Y-32893000D01*
X168966250Y-32893000D01*
X169125000Y-32734250D01*
X169125000Y-32043690D01*
X169034416Y-31825000D01*
X178956814Y-31825000D01*
X178891843Y-31922235D01*
X178891843Y-31922235D01*
G37*
X178891843Y-31922235D02*
X178842560Y-32170000D01*
X178842560Y-33870000D01*
X178891843Y-34117765D01*
X179032191Y-34327809D01*
X179242235Y-34468157D01*
X179304777Y-34480597D01*
X179260853Y-34509946D01*
X178938946Y-34991715D01*
X178825907Y-35560000D01*
X178938946Y-36128285D01*
X179260853Y-36610054D01*
X179590026Y-36830000D01*
X179260853Y-37049946D01*
X178938946Y-37531715D01*
X178825907Y-38100000D01*
X178907260Y-38508991D01*
X177923125Y-39493125D01*
X177766204Y-39727975D01*
X177766204Y-39727976D01*
X177711099Y-40005000D01*
X177711100Y-40005005D01*
X177711100Y-46309151D01*
X175468150Y-48552100D01*
X174764221Y-48552100D01*
X174828647Y-48487787D01*
X174959850Y-48171815D01*
X174960149Y-47829686D01*
X174844461Y-47549702D01*
X174959850Y-47271815D01*
X174960149Y-46929686D01*
X174829497Y-46613486D01*
X174587787Y-46371353D01*
X174271815Y-46240150D01*
X173929686Y-46239851D01*
X173613486Y-46370503D01*
X173371353Y-46612213D01*
X173240150Y-46928185D01*
X173240143Y-46936107D01*
X172640150Y-47536100D01*
X168937076Y-47536100D01*
X168719147Y-47209946D01*
X168389974Y-46990000D01*
X168719147Y-46770054D01*
X169041054Y-46288285D01*
X169154093Y-45720000D01*
X169041054Y-45151715D01*
X168719147Y-44669946D01*
X168389974Y-44450000D01*
X168719147Y-44230054D01*
X169041054Y-43748285D01*
X169154093Y-43180000D01*
X169041054Y-42611715D01*
X168719147Y-42129946D01*
X168389974Y-41910000D01*
X168719147Y-41690054D01*
X169041054Y-41208285D01*
X169154093Y-40640000D01*
X169041054Y-40071715D01*
X168719147Y-39589946D01*
X168389974Y-39370000D01*
X168719147Y-39150054D01*
X169041054Y-38668285D01*
X169154093Y-38100000D01*
X169041054Y-37531715D01*
X168719147Y-37049946D01*
X168389974Y-36830000D01*
X168719147Y-36610054D01*
X169041054Y-36128285D01*
X169154093Y-35560000D01*
X169041054Y-34991715D01*
X168719147Y-34509946D01*
X168675223Y-34480597D01*
X168849698Y-34408327D01*
X169028327Y-34229699D01*
X169125000Y-33996310D01*
X169125000Y-33305750D01*
X168966250Y-33147000D01*
X167767000Y-33147000D01*
X167767000Y-33167000D01*
X167513000Y-33167000D01*
X167513000Y-33147000D01*
X167493000Y-33147000D01*
X167493000Y-32893000D01*
X167513000Y-32893000D01*
X167513000Y-32873000D01*
X167767000Y-32873000D01*
X167767000Y-32893000D01*
X168966250Y-32893000D01*
X169125000Y-32734250D01*
X169125000Y-32043690D01*
X169034416Y-31825000D01*
X178956814Y-31825000D01*
X178891843Y-31922235D01*
M02*
