G04 #@! TF.GenerationSoftware,KiCad,Pcbnew,(5.0-dev-4158-ga83669ab1)*
G04 #@! TF.CreationDate,2018-03-07T22:38:40+01:00*
G04 #@! TF.ProjectId,bbq10breakout,6262713130627265616B6F75742E6B69,rev?*
G04 #@! TF.SameCoordinates,Original*
G04 #@! TF.FileFunction,Copper,L1,Top,Signal*
G04 #@! TF.FilePolarity,Positive*
%FSLAX46Y46*%
G04 Gerber Fmt 4.6, Leading zero omitted, Abs format (unit mm)*
G04 Created by KiCad (PCBNEW (5.0-dev-4158-ga83669ab1)) date 03/07/18 22:38:40*
%MOMM*%
%LPD*%
G01*
G04 APERTURE LIST*
%ADD10R,1.700000X1.700000*%
%ADD11O,1.700000X1.700000*%
%ADD12R,0.800000X0.750000*%
%ADD13R,0.800000X0.200000*%
%ADD14R,0.800000X0.400000*%
%ADD15C,0.450000*%
%ADD16C,0.177800*%
%ADD17C,0.254000*%
G04 APERTURE END LIST*
D10*
X180340000Y-33020000D03*
D11*
X180340000Y-35560000D03*
X180340000Y-38100000D03*
X180340000Y-40640000D03*
X180340000Y-43180000D03*
X180340000Y-45720000D03*
X180340000Y-48260000D03*
X180340000Y-50800000D03*
X167640000Y-50800000D03*
X167640000Y-48260000D03*
X167640000Y-45720000D03*
X167640000Y-43180000D03*
X167640000Y-40640000D03*
X167640000Y-38100000D03*
X167640000Y-35560000D03*
D10*
X167640000Y-33020000D03*
D12*
X173240000Y-41402000D03*
X174740000Y-41402000D03*
D13*
X175140000Y-46060000D03*
X175140000Y-46460000D03*
X175140000Y-46860000D03*
X175140000Y-47260000D03*
X175140000Y-47660000D03*
X175140000Y-48060000D03*
X175140000Y-48460000D03*
X175140000Y-48860000D03*
X175140000Y-49260000D03*
X175140000Y-49660000D03*
X175140000Y-50060000D03*
X175140000Y-50460000D03*
X172840000Y-50460000D03*
X172840000Y-50060000D03*
X172840000Y-49660000D03*
X172840000Y-49260000D03*
X172840000Y-48860000D03*
X172840000Y-48460000D03*
X172840000Y-48060000D03*
X172840000Y-47660000D03*
X172840000Y-47260000D03*
X172840000Y-46860000D03*
X172840000Y-46460000D03*
X172840000Y-46060000D03*
D14*
X175140000Y-45560000D03*
X175140000Y-50960000D03*
X172840000Y-50960000D03*
X172840000Y-45560000D03*
D15*
X177038000Y-51054000D03*
X170180000Y-49784000D03*
X172466000Y-44831000D03*
X171450000Y-46482000D03*
X173736000Y-49276000D03*
X173736000Y-50165000D03*
X178700000Y-49100000D03*
X174100000Y-47100000D03*
X177700000Y-48600000D03*
X174100000Y-48000000D03*
D16*
X173417800Y-47260000D02*
X173600000Y-47077800D01*
X172840000Y-47260000D02*
X173417800Y-47260000D01*
X173600000Y-47077800D02*
X173600000Y-46618000D01*
X173600000Y-46618000D02*
X173990000Y-46228000D01*
D17*
X173990000Y-45847000D02*
X173990000Y-46228000D01*
D16*
X172840000Y-46460000D02*
X173758000Y-46460000D01*
X173758000Y-46460000D02*
X173990000Y-46228000D01*
D17*
X173990000Y-42781000D02*
X173990000Y-45847000D01*
D16*
X175140000Y-46060000D02*
X174203000Y-46060000D01*
X174203000Y-46060000D02*
X173990000Y-45847000D01*
D17*
X173240000Y-41402000D02*
X173240000Y-42031000D01*
X173240000Y-42031000D02*
X173990000Y-42781000D01*
X180340000Y-33020000D02*
X179236000Y-33020000D01*
X179236000Y-33020000D02*
X173240000Y-39016000D01*
X173240000Y-39016000D02*
X173240000Y-40773000D01*
X173240000Y-40773000D02*
X173240000Y-41402000D01*
D16*
X175140000Y-46860000D02*
X175140000Y-47260000D01*
X175140000Y-47260000D02*
X176006000Y-47260000D01*
X172840000Y-45205000D02*
X172466000Y-44831000D01*
X172840000Y-45560000D02*
X172840000Y-45205000D01*
X172262200Y-46860000D02*
X171828000Y-46860000D01*
X172840000Y-47660000D02*
X172262200Y-47660000D01*
X172262200Y-47660000D02*
X171450000Y-46847800D01*
X171450000Y-46847800D02*
X171450000Y-46800198D01*
X171450000Y-46800198D02*
X171450000Y-46482000D01*
X172840000Y-46860000D02*
X171828000Y-46860000D01*
X171828000Y-46860000D02*
X171450000Y-46482000D01*
X172840000Y-50460000D02*
X172262200Y-50460000D01*
X172262200Y-50460000D02*
X172176200Y-50546000D01*
X172262200Y-46860000D02*
X172259200Y-46863000D01*
X175140000Y-49660000D02*
X175140000Y-50060000D01*
X171917000Y-46060000D02*
X170840440Y-44983440D01*
X172840000Y-46060000D02*
X171917000Y-46060000D01*
X170840440Y-44983440D02*
X170840440Y-38760440D01*
X170840440Y-38760440D02*
X168489999Y-36409999D01*
X168489999Y-36409999D02*
X167640000Y-35560000D01*
X170484830Y-46654738D02*
X170484830Y-40944830D01*
X170484830Y-40944830D02*
X167640000Y-38100000D01*
X172840000Y-48060000D02*
X171890092Y-48060000D01*
X171890092Y-48060000D02*
X170484830Y-46654738D01*
X176806000Y-46460000D02*
X177800000Y-45466000D01*
X175140000Y-46460000D02*
X176806000Y-46460000D01*
X177800000Y-45466000D02*
X177800000Y-38100000D01*
X177800000Y-38100000D02*
X179490001Y-36409999D01*
X179490001Y-36409999D02*
X180340000Y-35560000D01*
X170129220Y-46939220D02*
X170129220Y-43129220D01*
X170129220Y-43129220D02*
X167640000Y-40640000D01*
X171650000Y-48460000D02*
X170129220Y-46939220D01*
X172840000Y-48460000D02*
X171650000Y-48460000D01*
X173720000Y-49260000D02*
X173736000Y-49276000D01*
X172840000Y-49260000D02*
X173720000Y-49260000D01*
X169773609Y-47086518D02*
X169773609Y-45313609D01*
X169773609Y-45313609D02*
X167640000Y-43180000D01*
X171547091Y-48860000D02*
X169773609Y-47086518D01*
X172840000Y-48860000D02*
X171547091Y-48860000D01*
X173631000Y-50060000D02*
X173736000Y-50165000D01*
X172840000Y-50060000D02*
X173631000Y-50060000D01*
X171844182Y-49660000D02*
X167904182Y-45720000D01*
X172840000Y-49660000D02*
X171844182Y-49660000D01*
X167904182Y-45720000D02*
X167640000Y-45720000D01*
X175140000Y-49260000D02*
X178540000Y-49260000D01*
X178540000Y-49260000D02*
X178700000Y-49100000D01*
X174562200Y-48460000D02*
X174530484Y-48491716D01*
X175140000Y-48460000D02*
X174562200Y-48460000D01*
X173863982Y-48491716D02*
X173608298Y-48236032D01*
X173608298Y-47591702D02*
X173875001Y-47324999D01*
X173875001Y-47324999D02*
X174100000Y-47100000D01*
X173608298Y-48236032D02*
X173608298Y-47591702D01*
X174530484Y-48491716D02*
X173863982Y-48491716D01*
X177475001Y-48824999D02*
X177700000Y-48600000D01*
X177440000Y-48860000D02*
X177475001Y-48824999D01*
X175140000Y-48860000D02*
X177440000Y-48860000D01*
X175140000Y-47660000D02*
X174440000Y-47660000D01*
X174440000Y-47660000D02*
X174324999Y-47775001D01*
X174324999Y-47775001D02*
X174100000Y-48000000D01*
X179124000Y-48060000D02*
X179324000Y-48260000D01*
X175140000Y-48060000D02*
X179124000Y-48060000D01*
X179324000Y-48260000D02*
X180340000Y-48260000D01*
D17*
G36*
X181283086Y-31641216D02*
X181544268Y-31815732D01*
X181718785Y-32076915D01*
X181789000Y-32429911D01*
X181789000Y-51390089D01*
X181718785Y-51743085D01*
X181544268Y-52004268D01*
X181283086Y-52178784D01*
X180930088Y-52249000D01*
X167049911Y-52249000D01*
X166696915Y-52178785D01*
X166435732Y-52004268D01*
X166261216Y-51743086D01*
X166191000Y-51390088D01*
X166191000Y-50800000D01*
X166384883Y-50800000D01*
X166478587Y-51271083D01*
X166745435Y-51670448D01*
X167144800Y-51937296D01*
X167615883Y-52031000D01*
X167664117Y-52031000D01*
X168135200Y-51937296D01*
X168534565Y-51670448D01*
X168801413Y-51271083D01*
X168824453Y-51155250D01*
X172059000Y-51155250D01*
X172059000Y-51235786D01*
X172117004Y-51375820D01*
X172224181Y-51482996D01*
X172364215Y-51541000D01*
X172617750Y-51541000D01*
X172713000Y-51445750D01*
X172713000Y-51060000D01*
X172967000Y-51060000D01*
X172967000Y-51445750D01*
X173062250Y-51541000D01*
X173315785Y-51541000D01*
X173455819Y-51482996D01*
X173562996Y-51375820D01*
X173621000Y-51235786D01*
X173621000Y-51155250D01*
X174359000Y-51155250D01*
X174359000Y-51235786D01*
X174417004Y-51375820D01*
X174524181Y-51482996D01*
X174664215Y-51541000D01*
X174917750Y-51541000D01*
X175013000Y-51445750D01*
X175013000Y-51060000D01*
X175267000Y-51060000D01*
X175267000Y-51445750D01*
X175362250Y-51541000D01*
X175615785Y-51541000D01*
X175755819Y-51482996D01*
X175862996Y-51375820D01*
X175921000Y-51235786D01*
X175921000Y-51155250D01*
X175825750Y-51060000D01*
X175267000Y-51060000D01*
X175013000Y-51060000D01*
X174454250Y-51060000D01*
X174359000Y-51155250D01*
X173621000Y-51155250D01*
X173525750Y-51060000D01*
X172967000Y-51060000D01*
X172713000Y-51060000D01*
X172154250Y-51060000D01*
X172059000Y-51155250D01*
X168824453Y-51155250D01*
X168895117Y-50800000D01*
X168801413Y-50328917D01*
X168534565Y-49929552D01*
X168135200Y-49662704D01*
X167664117Y-49569000D01*
X167615883Y-49569000D01*
X167144800Y-49662704D01*
X166745435Y-49929552D01*
X166478587Y-50328917D01*
X166384883Y-50800000D01*
X166191000Y-50800000D01*
X166191000Y-48260000D01*
X166384883Y-48260000D01*
X166478587Y-48731083D01*
X166745435Y-49130448D01*
X167144800Y-49397296D01*
X167615883Y-49491000D01*
X167664117Y-49491000D01*
X168135200Y-49397296D01*
X168534565Y-49130448D01*
X168801413Y-48731083D01*
X168895117Y-48260000D01*
X168801413Y-47788917D01*
X168534565Y-47389552D01*
X168135200Y-47122704D01*
X167664117Y-47029000D01*
X167615883Y-47029000D01*
X167144800Y-47122704D01*
X166745435Y-47389552D01*
X166478587Y-47788917D01*
X166384883Y-48260000D01*
X166191000Y-48260000D01*
X166191000Y-35560000D01*
X166384883Y-35560000D01*
X166478587Y-36031083D01*
X166745435Y-36430448D01*
X167144800Y-36697296D01*
X167615883Y-36791000D01*
X167664117Y-36791000D01*
X168116481Y-36701020D01*
X168157729Y-36742268D01*
X168157732Y-36742270D01*
X170370540Y-38955079D01*
X170370540Y-40166001D01*
X168791082Y-38586544D01*
X168801413Y-38571083D01*
X168895117Y-38100000D01*
X168801413Y-37628917D01*
X168534565Y-37229552D01*
X168135200Y-36962704D01*
X167664117Y-36869000D01*
X167615883Y-36869000D01*
X167144800Y-36962704D01*
X166745435Y-37229552D01*
X166478587Y-37628917D01*
X166384883Y-38100000D01*
X166478587Y-38571083D01*
X166745435Y-38970448D01*
X167144800Y-39237296D01*
X167615883Y-39331000D01*
X167664117Y-39331000D01*
X168116481Y-39241019D01*
X170014930Y-41139469D01*
X170014930Y-42350391D01*
X168791082Y-41126544D01*
X168801413Y-41111083D01*
X168895117Y-40640000D01*
X168801413Y-40168917D01*
X168534565Y-39769552D01*
X168135200Y-39502704D01*
X167664117Y-39409000D01*
X167615883Y-39409000D01*
X167144800Y-39502704D01*
X166745435Y-39769552D01*
X166478587Y-40168917D01*
X166384883Y-40640000D01*
X166478587Y-41111083D01*
X166745435Y-41510448D01*
X167144800Y-41777296D01*
X167615883Y-41871000D01*
X167664117Y-41871000D01*
X168116481Y-41781019D01*
X169659320Y-43323859D01*
X169659320Y-44534781D01*
X168791082Y-43666544D01*
X168801413Y-43651083D01*
X168895117Y-43180000D01*
X168801413Y-42708917D01*
X168534565Y-42309552D01*
X168135200Y-42042704D01*
X167664117Y-41949000D01*
X167615883Y-41949000D01*
X167144800Y-42042704D01*
X166745435Y-42309552D01*
X166478587Y-42708917D01*
X166384883Y-43180000D01*
X166478587Y-43651083D01*
X166745435Y-44050448D01*
X167144800Y-44317296D01*
X167615883Y-44411000D01*
X167664117Y-44411000D01*
X168116481Y-44321019D01*
X169303709Y-45508248D01*
X169303709Y-46454989D01*
X168840964Y-45992244D01*
X168895117Y-45720000D01*
X168801413Y-45248917D01*
X168534565Y-44849552D01*
X168135200Y-44582704D01*
X167664117Y-44489000D01*
X167615883Y-44489000D01*
X167144800Y-44582704D01*
X166745435Y-44849552D01*
X166478587Y-45248917D01*
X166384883Y-45720000D01*
X166478587Y-46191083D01*
X166745435Y-46590448D01*
X167144800Y-46857296D01*
X167615883Y-46951000D01*
X167664117Y-46951000D01*
X168135200Y-46857296D01*
X168280112Y-46760468D01*
X171511912Y-49992269D01*
X171634605Y-50074250D01*
X171664359Y-50094131D01*
X171844182Y-50129900D01*
X172051536Y-50129900D01*
X172051536Y-50160000D01*
X172070649Y-50256090D01*
X172059000Y-50284214D01*
X172059000Y-50314750D01*
X172137884Y-50393634D01*
X172165314Y-50434686D01*
X172201992Y-50459193D01*
X172117004Y-50544180D01*
X172114836Y-50549414D01*
X172059000Y-50605250D01*
X172059000Y-50635786D01*
X172069030Y-50660000D01*
X172059000Y-50684214D01*
X172059000Y-50764750D01*
X172154250Y-50860000D01*
X172201185Y-50860000D01*
X172224181Y-50882996D01*
X172364215Y-50941000D01*
X172617750Y-50941000D01*
X172698750Y-50860000D01*
X172713000Y-50860000D01*
X172713000Y-50813000D01*
X172967000Y-50813000D01*
X172967000Y-50860000D01*
X172981250Y-50860000D01*
X173062250Y-50941000D01*
X173315785Y-50941000D01*
X173455819Y-50882996D01*
X173478815Y-50860000D01*
X173525750Y-50860000D01*
X173614878Y-50770872D01*
X173614930Y-50770894D01*
X173856012Y-50771105D01*
X174078823Y-50679041D01*
X174249442Y-50508719D01*
X174341894Y-50286070D01*
X174342105Y-50044988D01*
X174250041Y-49822177D01*
X174148513Y-49720472D01*
X174249442Y-49619719D01*
X174341894Y-49397070D01*
X174342105Y-49155988D01*
X174261792Y-48961616D01*
X174351857Y-48961616D01*
X174371427Y-49060000D01*
X174351536Y-49160000D01*
X174351536Y-49360000D01*
X174370649Y-49456090D01*
X174359000Y-49484214D01*
X174359000Y-49514750D01*
X174437884Y-49593634D01*
X174465314Y-49634686D01*
X174501992Y-49659193D01*
X174417004Y-49744180D01*
X174414836Y-49749414D01*
X174359000Y-49805250D01*
X174359000Y-49835786D01*
X174369030Y-49860000D01*
X174359000Y-49884214D01*
X174359000Y-49914750D01*
X174414836Y-49970586D01*
X174417004Y-49975820D01*
X174501185Y-50060000D01*
X174417004Y-50144180D01*
X174414836Y-50149414D01*
X174359000Y-50205250D01*
X174359000Y-50235786D01*
X174369030Y-50260000D01*
X174359000Y-50284214D01*
X174359000Y-50314750D01*
X174414836Y-50370586D01*
X174417004Y-50375820D01*
X174501185Y-50460000D01*
X174417004Y-50544180D01*
X174414836Y-50549414D01*
X174359000Y-50605250D01*
X174359000Y-50635786D01*
X174369030Y-50660000D01*
X174359000Y-50684214D01*
X174359000Y-50764750D01*
X174454250Y-50860000D01*
X174501185Y-50860000D01*
X174524181Y-50882996D01*
X174664215Y-50941000D01*
X174917750Y-50941000D01*
X174998750Y-50860000D01*
X175013000Y-50860000D01*
X175013000Y-50474250D01*
X174998750Y-50460000D01*
X175013000Y-50445750D01*
X175013000Y-50074250D01*
X174998750Y-50060000D01*
X175013000Y-50045750D01*
X175013000Y-49960000D01*
X175267000Y-49960000D01*
X175267000Y-50045750D01*
X175281250Y-50060000D01*
X175267000Y-50074250D01*
X175267000Y-50445750D01*
X175281250Y-50460000D01*
X175267000Y-50474250D01*
X175267000Y-50860000D01*
X175281250Y-50860000D01*
X175362250Y-50941000D01*
X175615785Y-50941000D01*
X175755819Y-50882996D01*
X175778815Y-50860000D01*
X175825750Y-50860000D01*
X175885750Y-50800000D01*
X179084883Y-50800000D01*
X179178587Y-51271083D01*
X179445435Y-51670448D01*
X179844800Y-51937296D01*
X180315883Y-52031000D01*
X180364117Y-52031000D01*
X180835200Y-51937296D01*
X181234565Y-51670448D01*
X181501413Y-51271083D01*
X181595117Y-50800000D01*
X181501413Y-50328917D01*
X181234565Y-49929552D01*
X180835200Y-49662704D01*
X180364117Y-49569000D01*
X180315883Y-49569000D01*
X179844800Y-49662704D01*
X179445435Y-49929552D01*
X179178587Y-50328917D01*
X179084883Y-50800000D01*
X175885750Y-50800000D01*
X175921000Y-50764750D01*
X175921000Y-50684214D01*
X175910970Y-50660000D01*
X175921000Y-50635786D01*
X175921000Y-50605250D01*
X175865164Y-50549414D01*
X175862996Y-50544180D01*
X175778815Y-50460000D01*
X175862996Y-50375820D01*
X175865164Y-50370586D01*
X175921000Y-50314750D01*
X175921000Y-50284214D01*
X175910970Y-50260000D01*
X175921000Y-50235786D01*
X175921000Y-50205250D01*
X175865164Y-50149414D01*
X175862996Y-50144180D01*
X175778815Y-50060000D01*
X175862996Y-49975820D01*
X175865164Y-49970586D01*
X175921000Y-49914750D01*
X175921000Y-49884214D01*
X175910970Y-49860000D01*
X175921000Y-49835786D01*
X175921000Y-49805250D01*
X175902752Y-49787002D01*
X175921000Y-49787002D01*
X175921000Y-49729900D01*
X178540000Y-49729900D01*
X178660328Y-49705965D01*
X178820012Y-49706105D01*
X179042823Y-49614041D01*
X179213442Y-49443719D01*
X179305894Y-49221070D01*
X179306105Y-48979988D01*
X179243239Y-48827841D01*
X179445435Y-49130448D01*
X179844800Y-49397296D01*
X180315883Y-49491000D01*
X180364117Y-49491000D01*
X180835200Y-49397296D01*
X181234565Y-49130448D01*
X181501413Y-48731083D01*
X181595117Y-48260000D01*
X181501413Y-47788917D01*
X181234565Y-47389552D01*
X180835200Y-47122704D01*
X180364117Y-47029000D01*
X180315883Y-47029000D01*
X179844800Y-47122704D01*
X179445435Y-47389552D01*
X179289444Y-47623009D01*
X179124000Y-47590100D01*
X175928464Y-47590100D01*
X175928464Y-47560000D01*
X175909351Y-47463910D01*
X175921000Y-47435786D01*
X175921000Y-47405250D01*
X175842116Y-47326366D01*
X175814686Y-47285314D01*
X175778008Y-47260807D01*
X175862996Y-47175820D01*
X175865164Y-47170586D01*
X175921000Y-47114750D01*
X175921000Y-47084214D01*
X175910970Y-47060000D01*
X175921000Y-47035786D01*
X175921000Y-47005250D01*
X175902752Y-46987002D01*
X175921000Y-46987002D01*
X175921000Y-46929900D01*
X176806000Y-46929900D01*
X176985823Y-46894131D01*
X177138269Y-46792269D01*
X178132269Y-45798270D01*
X178184567Y-45720000D01*
X179084883Y-45720000D01*
X179178587Y-46191083D01*
X179445435Y-46590448D01*
X179844800Y-46857296D01*
X180315883Y-46951000D01*
X180364117Y-46951000D01*
X180835200Y-46857296D01*
X181234565Y-46590448D01*
X181501413Y-46191083D01*
X181595117Y-45720000D01*
X181501413Y-45248917D01*
X181234565Y-44849552D01*
X180835200Y-44582704D01*
X180364117Y-44489000D01*
X180315883Y-44489000D01*
X179844800Y-44582704D01*
X179445435Y-44849552D01*
X179178587Y-45248917D01*
X179084883Y-45720000D01*
X178184567Y-45720000D01*
X178234131Y-45645823D01*
X178245215Y-45590100D01*
X178269900Y-45466000D01*
X178269900Y-43180000D01*
X179084883Y-43180000D01*
X179178587Y-43651083D01*
X179445435Y-44050448D01*
X179844800Y-44317296D01*
X180315883Y-44411000D01*
X180364117Y-44411000D01*
X180835200Y-44317296D01*
X181234565Y-44050448D01*
X181501413Y-43651083D01*
X181595117Y-43180000D01*
X181501413Y-42708917D01*
X181234565Y-42309552D01*
X180835200Y-42042704D01*
X180364117Y-41949000D01*
X180315883Y-41949000D01*
X179844800Y-42042704D01*
X179445435Y-42309552D01*
X179178587Y-42708917D01*
X179084883Y-43180000D01*
X178269900Y-43180000D01*
X178269900Y-40640000D01*
X179084883Y-40640000D01*
X179178587Y-41111083D01*
X179445435Y-41510448D01*
X179844800Y-41777296D01*
X180315883Y-41871000D01*
X180364117Y-41871000D01*
X180835200Y-41777296D01*
X181234565Y-41510448D01*
X181501413Y-41111083D01*
X181595117Y-40640000D01*
X181501413Y-40168917D01*
X181234565Y-39769552D01*
X180835200Y-39502704D01*
X180364117Y-39409000D01*
X180315883Y-39409000D01*
X179844800Y-39502704D01*
X179445435Y-39769552D01*
X179178587Y-40168917D01*
X179084883Y-40640000D01*
X178269900Y-40640000D01*
X178269900Y-38294638D01*
X178464538Y-38100000D01*
X179084883Y-38100000D01*
X179178587Y-38571083D01*
X179445435Y-38970448D01*
X179844800Y-39237296D01*
X180315883Y-39331000D01*
X180364117Y-39331000D01*
X180835200Y-39237296D01*
X181234565Y-38970448D01*
X181501413Y-38571083D01*
X181595117Y-38100000D01*
X181501413Y-37628917D01*
X181234565Y-37229552D01*
X180835200Y-36962704D01*
X180364117Y-36869000D01*
X180315883Y-36869000D01*
X179844800Y-36962704D01*
X179445435Y-37229552D01*
X179178587Y-37628917D01*
X179084883Y-38100000D01*
X178464538Y-38100000D01*
X179822270Y-36742269D01*
X179822272Y-36742266D01*
X179863519Y-36701019D01*
X180315883Y-36791000D01*
X180364117Y-36791000D01*
X180835200Y-36697296D01*
X181234565Y-36430448D01*
X181501413Y-36031083D01*
X181595117Y-35560000D01*
X181501413Y-35088917D01*
X181234565Y-34689552D01*
X180835200Y-34422704D01*
X180364117Y-34329000D01*
X180315883Y-34329000D01*
X179844800Y-34422704D01*
X179445435Y-34689552D01*
X179178587Y-35088917D01*
X179084883Y-35560000D01*
X179178587Y-36031083D01*
X179188918Y-36046544D01*
X179157734Y-36077728D01*
X179157731Y-36077730D01*
X177467731Y-37767731D01*
X177365869Y-37920177D01*
X177330100Y-38100000D01*
X177330100Y-45271361D01*
X176611362Y-45990100D01*
X175928464Y-45990100D01*
X175928464Y-45960000D01*
X175909351Y-45863910D01*
X175921000Y-45835786D01*
X175921000Y-45755250D01*
X175825750Y-45660000D01*
X175776801Y-45660000D01*
X175688659Y-45601106D01*
X175540000Y-45571536D01*
X174993000Y-45571536D01*
X174993000Y-45460000D01*
X175013000Y-45460000D01*
X175013000Y-45074250D01*
X175267000Y-45074250D01*
X175267000Y-45460000D01*
X175825750Y-45460000D01*
X175921000Y-45364750D01*
X175921000Y-45284214D01*
X175862996Y-45144180D01*
X175755819Y-45037004D01*
X175615785Y-44979000D01*
X175362250Y-44979000D01*
X175267000Y-45074250D01*
X175013000Y-45074250D01*
X174917750Y-44979000D01*
X174664215Y-44979000D01*
X174524181Y-45037004D01*
X174498000Y-45063185D01*
X174498000Y-42781000D01*
X174480911Y-42695089D01*
X174459331Y-42586596D01*
X174349210Y-42421790D01*
X173940489Y-42013069D01*
X173992901Y-41934629D01*
X174017004Y-41992819D01*
X174124180Y-42099996D01*
X174264214Y-42158000D01*
X174517750Y-42158000D01*
X174613000Y-42062750D01*
X174613000Y-41529000D01*
X174867000Y-41529000D01*
X174867000Y-42062750D01*
X174962250Y-42158000D01*
X175215786Y-42158000D01*
X175355820Y-42099996D01*
X175462996Y-41992819D01*
X175521000Y-41852785D01*
X175521000Y-41624250D01*
X175425750Y-41529000D01*
X174867000Y-41529000D01*
X174613000Y-41529000D01*
X174593000Y-41529000D01*
X174593000Y-41275000D01*
X174613000Y-41275000D01*
X174613000Y-40741250D01*
X174867000Y-40741250D01*
X174867000Y-41275000D01*
X175425750Y-41275000D01*
X175521000Y-41179750D01*
X175521000Y-40951215D01*
X175462996Y-40811181D01*
X175355820Y-40704004D01*
X175215786Y-40646000D01*
X174962250Y-40646000D01*
X174867000Y-40741250D01*
X174613000Y-40741250D01*
X174517750Y-40646000D01*
X174264214Y-40646000D01*
X174124180Y-40704004D01*
X174017004Y-40811181D01*
X173992901Y-40869371D01*
X173914686Y-40752314D01*
X173788659Y-40668106D01*
X173748000Y-40660018D01*
X173748000Y-39226420D01*
X179102015Y-33872406D01*
X179131106Y-34018659D01*
X179215314Y-34144686D01*
X179341341Y-34228894D01*
X179490000Y-34258464D01*
X181190000Y-34258464D01*
X181338659Y-34228894D01*
X181464686Y-34144686D01*
X181548894Y-34018659D01*
X181578464Y-33870000D01*
X181578464Y-32170000D01*
X181548894Y-32021341D01*
X181464686Y-31895314D01*
X181338659Y-31811106D01*
X181190000Y-31781536D01*
X179490000Y-31781536D01*
X179341341Y-31811106D01*
X179215314Y-31895314D01*
X179131106Y-32021341D01*
X179101536Y-32170000D01*
X179101536Y-32538746D01*
X179041597Y-32550669D01*
X178876790Y-32660789D01*
X172880790Y-38656790D01*
X172770669Y-38821597D01*
X172732000Y-39016000D01*
X172732000Y-40660018D01*
X172691341Y-40668106D01*
X172565314Y-40752314D01*
X172481106Y-40878341D01*
X172451536Y-41027000D01*
X172451536Y-41777000D01*
X172481106Y-41925659D01*
X172565314Y-42051686D01*
X172691341Y-42135894D01*
X172755399Y-42148636D01*
X172770669Y-42225403D01*
X172880790Y-42390210D01*
X173482000Y-42991420D01*
X173482000Y-45063185D01*
X173455819Y-45037004D01*
X173315785Y-44979000D01*
X173062250Y-44979000D01*
X172967000Y-45074250D01*
X172967000Y-45460000D01*
X172987000Y-45460000D01*
X172987000Y-45571536D01*
X172693000Y-45571536D01*
X172693000Y-45460000D01*
X172713000Y-45460000D01*
X172713000Y-45074250D01*
X172617750Y-44979000D01*
X172364215Y-44979000D01*
X172224181Y-45037004D01*
X172117004Y-45144180D01*
X172059000Y-45284214D01*
X172059000Y-45364750D01*
X172127248Y-45432998D01*
X172059000Y-45432998D01*
X172059000Y-45537461D01*
X171310340Y-44788802D01*
X171310340Y-38760440D01*
X171274571Y-38580617D01*
X171267409Y-38569899D01*
X171172710Y-38428171D01*
X168822270Y-36077732D01*
X168822268Y-36077729D01*
X168791083Y-36046544D01*
X168801413Y-36031083D01*
X168895117Y-35560000D01*
X168801413Y-35088917D01*
X168534565Y-34689552D01*
X168135200Y-34422704D01*
X167664117Y-34329000D01*
X167615883Y-34329000D01*
X167144800Y-34422704D01*
X166745435Y-34689552D01*
X166478587Y-35088917D01*
X166384883Y-35560000D01*
X166191000Y-35560000D01*
X166191000Y-33242250D01*
X166409000Y-33242250D01*
X166409000Y-33945785D01*
X166467004Y-34085819D01*
X166574180Y-34192996D01*
X166714214Y-34251000D01*
X167417750Y-34251000D01*
X167513000Y-34155750D01*
X167513000Y-33147000D01*
X167767000Y-33147000D01*
X167767000Y-34155750D01*
X167862250Y-34251000D01*
X168565786Y-34251000D01*
X168705820Y-34192996D01*
X168812996Y-34085819D01*
X168871000Y-33945785D01*
X168871000Y-33242250D01*
X168775750Y-33147000D01*
X167767000Y-33147000D01*
X167513000Y-33147000D01*
X166504250Y-33147000D01*
X166409000Y-33242250D01*
X166191000Y-33242250D01*
X166191000Y-32429912D01*
X166257774Y-32094215D01*
X166409000Y-32094215D01*
X166409000Y-32797750D01*
X166504250Y-32893000D01*
X167513000Y-32893000D01*
X167513000Y-31884250D01*
X167767000Y-31884250D01*
X167767000Y-32893000D01*
X168775750Y-32893000D01*
X168871000Y-32797750D01*
X168871000Y-32094215D01*
X168812996Y-31954181D01*
X168705820Y-31847004D01*
X168565786Y-31789000D01*
X167862250Y-31789000D01*
X167767000Y-31884250D01*
X167513000Y-31884250D01*
X167417750Y-31789000D01*
X166714214Y-31789000D01*
X166574180Y-31847004D01*
X166467004Y-31954181D01*
X166409000Y-32094215D01*
X166257774Y-32094215D01*
X166261216Y-32076914D01*
X166435732Y-31815732D01*
X166696915Y-31641215D01*
X167049911Y-31571000D01*
X180930088Y-31571000D01*
X181283086Y-31641216D01*
X181283086Y-31641216D01*
G37*
X181283086Y-31641216D02*
X181544268Y-31815732D01*
X181718785Y-32076915D01*
X181789000Y-32429911D01*
X181789000Y-51390089D01*
X181718785Y-51743085D01*
X181544268Y-52004268D01*
X181283086Y-52178784D01*
X180930088Y-52249000D01*
X167049911Y-52249000D01*
X166696915Y-52178785D01*
X166435732Y-52004268D01*
X166261216Y-51743086D01*
X166191000Y-51390088D01*
X166191000Y-50800000D01*
X166384883Y-50800000D01*
X166478587Y-51271083D01*
X166745435Y-51670448D01*
X167144800Y-51937296D01*
X167615883Y-52031000D01*
X167664117Y-52031000D01*
X168135200Y-51937296D01*
X168534565Y-51670448D01*
X168801413Y-51271083D01*
X168824453Y-51155250D01*
X172059000Y-51155250D01*
X172059000Y-51235786D01*
X172117004Y-51375820D01*
X172224181Y-51482996D01*
X172364215Y-51541000D01*
X172617750Y-51541000D01*
X172713000Y-51445750D01*
X172713000Y-51060000D01*
X172967000Y-51060000D01*
X172967000Y-51445750D01*
X173062250Y-51541000D01*
X173315785Y-51541000D01*
X173455819Y-51482996D01*
X173562996Y-51375820D01*
X173621000Y-51235786D01*
X173621000Y-51155250D01*
X174359000Y-51155250D01*
X174359000Y-51235786D01*
X174417004Y-51375820D01*
X174524181Y-51482996D01*
X174664215Y-51541000D01*
X174917750Y-51541000D01*
X175013000Y-51445750D01*
X175013000Y-51060000D01*
X175267000Y-51060000D01*
X175267000Y-51445750D01*
X175362250Y-51541000D01*
X175615785Y-51541000D01*
X175755819Y-51482996D01*
X175862996Y-51375820D01*
X175921000Y-51235786D01*
X175921000Y-51155250D01*
X175825750Y-51060000D01*
X175267000Y-51060000D01*
X175013000Y-51060000D01*
X174454250Y-51060000D01*
X174359000Y-51155250D01*
X173621000Y-51155250D01*
X173525750Y-51060000D01*
X172967000Y-51060000D01*
X172713000Y-51060000D01*
X172154250Y-51060000D01*
X172059000Y-51155250D01*
X168824453Y-51155250D01*
X168895117Y-50800000D01*
X168801413Y-50328917D01*
X168534565Y-49929552D01*
X168135200Y-49662704D01*
X167664117Y-49569000D01*
X167615883Y-49569000D01*
X167144800Y-49662704D01*
X166745435Y-49929552D01*
X166478587Y-50328917D01*
X166384883Y-50800000D01*
X166191000Y-50800000D01*
X166191000Y-48260000D01*
X166384883Y-48260000D01*
X166478587Y-48731083D01*
X166745435Y-49130448D01*
X167144800Y-49397296D01*
X167615883Y-49491000D01*
X167664117Y-49491000D01*
X168135200Y-49397296D01*
X168534565Y-49130448D01*
X168801413Y-48731083D01*
X168895117Y-48260000D01*
X168801413Y-47788917D01*
X168534565Y-47389552D01*
X168135200Y-47122704D01*
X167664117Y-47029000D01*
X167615883Y-47029000D01*
X167144800Y-47122704D01*
X166745435Y-47389552D01*
X166478587Y-47788917D01*
X166384883Y-48260000D01*
X166191000Y-48260000D01*
X166191000Y-35560000D01*
X166384883Y-35560000D01*
X166478587Y-36031083D01*
X166745435Y-36430448D01*
X167144800Y-36697296D01*
X167615883Y-36791000D01*
X167664117Y-36791000D01*
X168116481Y-36701020D01*
X168157729Y-36742268D01*
X168157732Y-36742270D01*
X170370540Y-38955079D01*
X170370540Y-40166001D01*
X168791082Y-38586544D01*
X168801413Y-38571083D01*
X168895117Y-38100000D01*
X168801413Y-37628917D01*
X168534565Y-37229552D01*
X168135200Y-36962704D01*
X167664117Y-36869000D01*
X167615883Y-36869000D01*
X167144800Y-36962704D01*
X166745435Y-37229552D01*
X166478587Y-37628917D01*
X166384883Y-38100000D01*
X166478587Y-38571083D01*
X166745435Y-38970448D01*
X167144800Y-39237296D01*
X167615883Y-39331000D01*
X167664117Y-39331000D01*
X168116481Y-39241019D01*
X170014930Y-41139469D01*
X170014930Y-42350391D01*
X168791082Y-41126544D01*
X168801413Y-41111083D01*
X168895117Y-40640000D01*
X168801413Y-40168917D01*
X168534565Y-39769552D01*
X168135200Y-39502704D01*
X167664117Y-39409000D01*
X167615883Y-39409000D01*
X167144800Y-39502704D01*
X166745435Y-39769552D01*
X166478587Y-40168917D01*
X166384883Y-40640000D01*
X166478587Y-41111083D01*
X166745435Y-41510448D01*
X167144800Y-41777296D01*
X167615883Y-41871000D01*
X167664117Y-41871000D01*
X168116481Y-41781019D01*
X169659320Y-43323859D01*
X169659320Y-44534781D01*
X168791082Y-43666544D01*
X168801413Y-43651083D01*
X168895117Y-43180000D01*
X168801413Y-42708917D01*
X168534565Y-42309552D01*
X168135200Y-42042704D01*
X167664117Y-41949000D01*
X167615883Y-41949000D01*
X167144800Y-42042704D01*
X166745435Y-42309552D01*
X166478587Y-42708917D01*
X166384883Y-43180000D01*
X166478587Y-43651083D01*
X166745435Y-44050448D01*
X167144800Y-44317296D01*
X167615883Y-44411000D01*
X167664117Y-44411000D01*
X168116481Y-44321019D01*
X169303709Y-45508248D01*
X169303709Y-46454989D01*
X168840964Y-45992244D01*
X168895117Y-45720000D01*
X168801413Y-45248917D01*
X168534565Y-44849552D01*
X168135200Y-44582704D01*
X167664117Y-44489000D01*
X167615883Y-44489000D01*
X167144800Y-44582704D01*
X166745435Y-44849552D01*
X166478587Y-45248917D01*
X166384883Y-45720000D01*
X166478587Y-46191083D01*
X166745435Y-46590448D01*
X167144800Y-46857296D01*
X167615883Y-46951000D01*
X167664117Y-46951000D01*
X168135200Y-46857296D01*
X168280112Y-46760468D01*
X171511912Y-49992269D01*
X171634605Y-50074250D01*
X171664359Y-50094131D01*
X171844182Y-50129900D01*
X172051536Y-50129900D01*
X172051536Y-50160000D01*
X172070649Y-50256090D01*
X172059000Y-50284214D01*
X172059000Y-50314750D01*
X172137884Y-50393634D01*
X172165314Y-50434686D01*
X172201992Y-50459193D01*
X172117004Y-50544180D01*
X172114836Y-50549414D01*
X172059000Y-50605250D01*
X172059000Y-50635786D01*
X172069030Y-50660000D01*
X172059000Y-50684214D01*
X172059000Y-50764750D01*
X172154250Y-50860000D01*
X172201185Y-50860000D01*
X172224181Y-50882996D01*
X172364215Y-50941000D01*
X172617750Y-50941000D01*
X172698750Y-50860000D01*
X172713000Y-50860000D01*
X172713000Y-50813000D01*
X172967000Y-50813000D01*
X172967000Y-50860000D01*
X172981250Y-50860000D01*
X173062250Y-50941000D01*
X173315785Y-50941000D01*
X173455819Y-50882996D01*
X173478815Y-50860000D01*
X173525750Y-50860000D01*
X173614878Y-50770872D01*
X173614930Y-50770894D01*
X173856012Y-50771105D01*
X174078823Y-50679041D01*
X174249442Y-50508719D01*
X174341894Y-50286070D01*
X174342105Y-50044988D01*
X174250041Y-49822177D01*
X174148513Y-49720472D01*
X174249442Y-49619719D01*
X174341894Y-49397070D01*
X174342105Y-49155988D01*
X174261792Y-48961616D01*
X174351857Y-48961616D01*
X174371427Y-49060000D01*
X174351536Y-49160000D01*
X174351536Y-49360000D01*
X174370649Y-49456090D01*
X174359000Y-49484214D01*
X174359000Y-49514750D01*
X174437884Y-49593634D01*
X174465314Y-49634686D01*
X174501992Y-49659193D01*
X174417004Y-49744180D01*
X174414836Y-49749414D01*
X174359000Y-49805250D01*
X174359000Y-49835786D01*
X174369030Y-49860000D01*
X174359000Y-49884214D01*
X174359000Y-49914750D01*
X174414836Y-49970586D01*
X174417004Y-49975820D01*
X174501185Y-50060000D01*
X174417004Y-50144180D01*
X174414836Y-50149414D01*
X174359000Y-50205250D01*
X174359000Y-50235786D01*
X174369030Y-50260000D01*
X174359000Y-50284214D01*
X174359000Y-50314750D01*
X174414836Y-50370586D01*
X174417004Y-50375820D01*
X174501185Y-50460000D01*
X174417004Y-50544180D01*
X174414836Y-50549414D01*
X174359000Y-50605250D01*
X174359000Y-50635786D01*
X174369030Y-50660000D01*
X174359000Y-50684214D01*
X174359000Y-50764750D01*
X174454250Y-50860000D01*
X174501185Y-50860000D01*
X174524181Y-50882996D01*
X174664215Y-50941000D01*
X174917750Y-50941000D01*
X174998750Y-50860000D01*
X175013000Y-50860000D01*
X175013000Y-50474250D01*
X174998750Y-50460000D01*
X175013000Y-50445750D01*
X175013000Y-50074250D01*
X174998750Y-50060000D01*
X175013000Y-50045750D01*
X175013000Y-49960000D01*
X175267000Y-49960000D01*
X175267000Y-50045750D01*
X175281250Y-50060000D01*
X175267000Y-50074250D01*
X175267000Y-50445750D01*
X175281250Y-50460000D01*
X175267000Y-50474250D01*
X175267000Y-50860000D01*
X175281250Y-50860000D01*
X175362250Y-50941000D01*
X175615785Y-50941000D01*
X175755819Y-50882996D01*
X175778815Y-50860000D01*
X175825750Y-50860000D01*
X175885750Y-50800000D01*
X179084883Y-50800000D01*
X179178587Y-51271083D01*
X179445435Y-51670448D01*
X179844800Y-51937296D01*
X180315883Y-52031000D01*
X180364117Y-52031000D01*
X180835200Y-51937296D01*
X181234565Y-51670448D01*
X181501413Y-51271083D01*
X181595117Y-50800000D01*
X181501413Y-50328917D01*
X181234565Y-49929552D01*
X180835200Y-49662704D01*
X180364117Y-49569000D01*
X180315883Y-49569000D01*
X179844800Y-49662704D01*
X179445435Y-49929552D01*
X179178587Y-50328917D01*
X179084883Y-50800000D01*
X175885750Y-50800000D01*
X175921000Y-50764750D01*
X175921000Y-50684214D01*
X175910970Y-50660000D01*
X175921000Y-50635786D01*
X175921000Y-50605250D01*
X175865164Y-50549414D01*
X175862996Y-50544180D01*
X175778815Y-50460000D01*
X175862996Y-50375820D01*
X175865164Y-50370586D01*
X175921000Y-50314750D01*
X175921000Y-50284214D01*
X175910970Y-50260000D01*
X175921000Y-50235786D01*
X175921000Y-50205250D01*
X175865164Y-50149414D01*
X175862996Y-50144180D01*
X175778815Y-50060000D01*
X175862996Y-49975820D01*
X175865164Y-49970586D01*
X175921000Y-49914750D01*
X175921000Y-49884214D01*
X175910970Y-49860000D01*
X175921000Y-49835786D01*
X175921000Y-49805250D01*
X175902752Y-49787002D01*
X175921000Y-49787002D01*
X175921000Y-49729900D01*
X178540000Y-49729900D01*
X178660328Y-49705965D01*
X178820012Y-49706105D01*
X179042823Y-49614041D01*
X179213442Y-49443719D01*
X179305894Y-49221070D01*
X179306105Y-48979988D01*
X179243239Y-48827841D01*
X179445435Y-49130448D01*
X179844800Y-49397296D01*
X180315883Y-49491000D01*
X180364117Y-49491000D01*
X180835200Y-49397296D01*
X181234565Y-49130448D01*
X181501413Y-48731083D01*
X181595117Y-48260000D01*
X181501413Y-47788917D01*
X181234565Y-47389552D01*
X180835200Y-47122704D01*
X180364117Y-47029000D01*
X180315883Y-47029000D01*
X179844800Y-47122704D01*
X179445435Y-47389552D01*
X179289444Y-47623009D01*
X179124000Y-47590100D01*
X175928464Y-47590100D01*
X175928464Y-47560000D01*
X175909351Y-47463910D01*
X175921000Y-47435786D01*
X175921000Y-47405250D01*
X175842116Y-47326366D01*
X175814686Y-47285314D01*
X175778008Y-47260807D01*
X175862996Y-47175820D01*
X175865164Y-47170586D01*
X175921000Y-47114750D01*
X175921000Y-47084214D01*
X175910970Y-47060000D01*
X175921000Y-47035786D01*
X175921000Y-47005250D01*
X175902752Y-46987002D01*
X175921000Y-46987002D01*
X175921000Y-46929900D01*
X176806000Y-46929900D01*
X176985823Y-46894131D01*
X177138269Y-46792269D01*
X178132269Y-45798270D01*
X178184567Y-45720000D01*
X179084883Y-45720000D01*
X179178587Y-46191083D01*
X179445435Y-46590448D01*
X179844800Y-46857296D01*
X180315883Y-46951000D01*
X180364117Y-46951000D01*
X180835200Y-46857296D01*
X181234565Y-46590448D01*
X181501413Y-46191083D01*
X181595117Y-45720000D01*
X181501413Y-45248917D01*
X181234565Y-44849552D01*
X180835200Y-44582704D01*
X180364117Y-44489000D01*
X180315883Y-44489000D01*
X179844800Y-44582704D01*
X179445435Y-44849552D01*
X179178587Y-45248917D01*
X179084883Y-45720000D01*
X178184567Y-45720000D01*
X178234131Y-45645823D01*
X178245215Y-45590100D01*
X178269900Y-45466000D01*
X178269900Y-43180000D01*
X179084883Y-43180000D01*
X179178587Y-43651083D01*
X179445435Y-44050448D01*
X179844800Y-44317296D01*
X180315883Y-44411000D01*
X180364117Y-44411000D01*
X180835200Y-44317296D01*
X181234565Y-44050448D01*
X181501413Y-43651083D01*
X181595117Y-43180000D01*
X181501413Y-42708917D01*
X181234565Y-42309552D01*
X180835200Y-42042704D01*
X180364117Y-41949000D01*
X180315883Y-41949000D01*
X179844800Y-42042704D01*
X179445435Y-42309552D01*
X179178587Y-42708917D01*
X179084883Y-43180000D01*
X178269900Y-43180000D01*
X178269900Y-40640000D01*
X179084883Y-40640000D01*
X179178587Y-41111083D01*
X179445435Y-41510448D01*
X179844800Y-41777296D01*
X180315883Y-41871000D01*
X180364117Y-41871000D01*
X180835200Y-41777296D01*
X181234565Y-41510448D01*
X181501413Y-41111083D01*
X181595117Y-40640000D01*
X181501413Y-40168917D01*
X181234565Y-39769552D01*
X180835200Y-39502704D01*
X180364117Y-39409000D01*
X180315883Y-39409000D01*
X179844800Y-39502704D01*
X179445435Y-39769552D01*
X179178587Y-40168917D01*
X179084883Y-40640000D01*
X178269900Y-40640000D01*
X178269900Y-38294638D01*
X178464538Y-38100000D01*
X179084883Y-38100000D01*
X179178587Y-38571083D01*
X179445435Y-38970448D01*
X179844800Y-39237296D01*
X180315883Y-39331000D01*
X180364117Y-39331000D01*
X180835200Y-39237296D01*
X181234565Y-38970448D01*
X181501413Y-38571083D01*
X181595117Y-38100000D01*
X181501413Y-37628917D01*
X181234565Y-37229552D01*
X180835200Y-36962704D01*
X180364117Y-36869000D01*
X180315883Y-36869000D01*
X179844800Y-36962704D01*
X179445435Y-37229552D01*
X179178587Y-37628917D01*
X179084883Y-38100000D01*
X178464538Y-38100000D01*
X179822270Y-36742269D01*
X179822272Y-36742266D01*
X179863519Y-36701019D01*
X180315883Y-36791000D01*
X180364117Y-36791000D01*
X180835200Y-36697296D01*
X181234565Y-36430448D01*
X181501413Y-36031083D01*
X181595117Y-35560000D01*
X181501413Y-35088917D01*
X181234565Y-34689552D01*
X180835200Y-34422704D01*
X180364117Y-34329000D01*
X180315883Y-34329000D01*
X179844800Y-34422704D01*
X179445435Y-34689552D01*
X179178587Y-35088917D01*
X179084883Y-35560000D01*
X179178587Y-36031083D01*
X179188918Y-36046544D01*
X179157734Y-36077728D01*
X179157731Y-36077730D01*
X177467731Y-37767731D01*
X177365869Y-37920177D01*
X177330100Y-38100000D01*
X177330100Y-45271361D01*
X176611362Y-45990100D01*
X175928464Y-45990100D01*
X175928464Y-45960000D01*
X175909351Y-45863910D01*
X175921000Y-45835786D01*
X175921000Y-45755250D01*
X175825750Y-45660000D01*
X175776801Y-45660000D01*
X175688659Y-45601106D01*
X175540000Y-45571536D01*
X174993000Y-45571536D01*
X174993000Y-45460000D01*
X175013000Y-45460000D01*
X175013000Y-45074250D01*
X175267000Y-45074250D01*
X175267000Y-45460000D01*
X175825750Y-45460000D01*
X175921000Y-45364750D01*
X175921000Y-45284214D01*
X175862996Y-45144180D01*
X175755819Y-45037004D01*
X175615785Y-44979000D01*
X175362250Y-44979000D01*
X175267000Y-45074250D01*
X175013000Y-45074250D01*
X174917750Y-44979000D01*
X174664215Y-44979000D01*
X174524181Y-45037004D01*
X174498000Y-45063185D01*
X174498000Y-42781000D01*
X174480911Y-42695089D01*
X174459331Y-42586596D01*
X174349210Y-42421790D01*
X173940489Y-42013069D01*
X173992901Y-41934629D01*
X174017004Y-41992819D01*
X174124180Y-42099996D01*
X174264214Y-42158000D01*
X174517750Y-42158000D01*
X174613000Y-42062750D01*
X174613000Y-41529000D01*
X174867000Y-41529000D01*
X174867000Y-42062750D01*
X174962250Y-42158000D01*
X175215786Y-42158000D01*
X175355820Y-42099996D01*
X175462996Y-41992819D01*
X175521000Y-41852785D01*
X175521000Y-41624250D01*
X175425750Y-41529000D01*
X174867000Y-41529000D01*
X174613000Y-41529000D01*
X174593000Y-41529000D01*
X174593000Y-41275000D01*
X174613000Y-41275000D01*
X174613000Y-40741250D01*
X174867000Y-40741250D01*
X174867000Y-41275000D01*
X175425750Y-41275000D01*
X175521000Y-41179750D01*
X175521000Y-40951215D01*
X175462996Y-40811181D01*
X175355820Y-40704004D01*
X175215786Y-40646000D01*
X174962250Y-40646000D01*
X174867000Y-40741250D01*
X174613000Y-40741250D01*
X174517750Y-40646000D01*
X174264214Y-40646000D01*
X174124180Y-40704004D01*
X174017004Y-40811181D01*
X173992901Y-40869371D01*
X173914686Y-40752314D01*
X173788659Y-40668106D01*
X173748000Y-40660018D01*
X173748000Y-39226420D01*
X179102015Y-33872406D01*
X179131106Y-34018659D01*
X179215314Y-34144686D01*
X179341341Y-34228894D01*
X179490000Y-34258464D01*
X181190000Y-34258464D01*
X181338659Y-34228894D01*
X181464686Y-34144686D01*
X181548894Y-34018659D01*
X181578464Y-33870000D01*
X181578464Y-32170000D01*
X181548894Y-32021341D01*
X181464686Y-31895314D01*
X181338659Y-31811106D01*
X181190000Y-31781536D01*
X179490000Y-31781536D01*
X179341341Y-31811106D01*
X179215314Y-31895314D01*
X179131106Y-32021341D01*
X179101536Y-32170000D01*
X179101536Y-32538746D01*
X179041597Y-32550669D01*
X178876790Y-32660789D01*
X172880790Y-38656790D01*
X172770669Y-38821597D01*
X172732000Y-39016000D01*
X172732000Y-40660018D01*
X172691341Y-40668106D01*
X172565314Y-40752314D01*
X172481106Y-40878341D01*
X172451536Y-41027000D01*
X172451536Y-41777000D01*
X172481106Y-41925659D01*
X172565314Y-42051686D01*
X172691341Y-42135894D01*
X172755399Y-42148636D01*
X172770669Y-42225403D01*
X172880790Y-42390210D01*
X173482000Y-42991420D01*
X173482000Y-45063185D01*
X173455819Y-45037004D01*
X173315785Y-44979000D01*
X173062250Y-44979000D01*
X172967000Y-45074250D01*
X172967000Y-45460000D01*
X172987000Y-45460000D01*
X172987000Y-45571536D01*
X172693000Y-45571536D01*
X172693000Y-45460000D01*
X172713000Y-45460000D01*
X172713000Y-45074250D01*
X172617750Y-44979000D01*
X172364215Y-44979000D01*
X172224181Y-45037004D01*
X172117004Y-45144180D01*
X172059000Y-45284214D01*
X172059000Y-45364750D01*
X172127248Y-45432998D01*
X172059000Y-45432998D01*
X172059000Y-45537461D01*
X171310340Y-44788802D01*
X171310340Y-38760440D01*
X171274571Y-38580617D01*
X171267409Y-38569899D01*
X171172710Y-38428171D01*
X168822270Y-36077732D01*
X168822268Y-36077729D01*
X168791083Y-36046544D01*
X168801413Y-36031083D01*
X168895117Y-35560000D01*
X168801413Y-35088917D01*
X168534565Y-34689552D01*
X168135200Y-34422704D01*
X167664117Y-34329000D01*
X167615883Y-34329000D01*
X167144800Y-34422704D01*
X166745435Y-34689552D01*
X166478587Y-35088917D01*
X166384883Y-35560000D01*
X166191000Y-35560000D01*
X166191000Y-33242250D01*
X166409000Y-33242250D01*
X166409000Y-33945785D01*
X166467004Y-34085819D01*
X166574180Y-34192996D01*
X166714214Y-34251000D01*
X167417750Y-34251000D01*
X167513000Y-34155750D01*
X167513000Y-33147000D01*
X167767000Y-33147000D01*
X167767000Y-34155750D01*
X167862250Y-34251000D01*
X168565786Y-34251000D01*
X168705820Y-34192996D01*
X168812996Y-34085819D01*
X168871000Y-33945785D01*
X168871000Y-33242250D01*
X168775750Y-33147000D01*
X167767000Y-33147000D01*
X167513000Y-33147000D01*
X166504250Y-33147000D01*
X166409000Y-33242250D01*
X166191000Y-33242250D01*
X166191000Y-32429912D01*
X166257774Y-32094215D01*
X166409000Y-32094215D01*
X166409000Y-32797750D01*
X166504250Y-32893000D01*
X167513000Y-32893000D01*
X167513000Y-31884250D01*
X167767000Y-31884250D01*
X167767000Y-32893000D01*
X168775750Y-32893000D01*
X168871000Y-32797750D01*
X168871000Y-32094215D01*
X168812996Y-31954181D01*
X168705820Y-31847004D01*
X168565786Y-31789000D01*
X167862250Y-31789000D01*
X167767000Y-31884250D01*
X167513000Y-31884250D01*
X167417750Y-31789000D01*
X166714214Y-31789000D01*
X166574180Y-31847004D01*
X166467004Y-31954181D01*
X166409000Y-32094215D01*
X166257774Y-32094215D01*
X166261216Y-32076914D01*
X166435732Y-31815732D01*
X166696915Y-31641215D01*
X167049911Y-31571000D01*
X180930088Y-31571000D01*
X181283086Y-31641216D01*
G36*
X171584731Y-46392270D02*
X171737177Y-46494131D01*
X171917000Y-46529900D01*
X172051536Y-46529900D01*
X172051536Y-46560000D01*
X172070649Y-46656090D01*
X172059000Y-46684214D01*
X172059000Y-46714750D01*
X172137884Y-46793634D01*
X172165314Y-46834686D01*
X172203199Y-46860000D01*
X172165314Y-46885314D01*
X172137884Y-46926366D01*
X172059000Y-47005250D01*
X172059000Y-47035786D01*
X172070649Y-47063910D01*
X172051536Y-47160000D01*
X172051536Y-47360000D01*
X172070649Y-47456090D01*
X172059000Y-47484214D01*
X172059000Y-47514750D01*
X172077248Y-47532998D01*
X172059000Y-47532998D01*
X172059000Y-47564369D01*
X170954730Y-46460100D01*
X170954730Y-45762268D01*
X171584731Y-46392270D01*
X171584731Y-46392270D01*
G37*
X171584731Y-46392270D02*
X171737177Y-46494131D01*
X171917000Y-46529900D01*
X172051536Y-46529900D01*
X172051536Y-46560000D01*
X172070649Y-46656090D01*
X172059000Y-46684214D01*
X172059000Y-46714750D01*
X172137884Y-46793634D01*
X172165314Y-46834686D01*
X172203199Y-46860000D01*
X172165314Y-46885314D01*
X172137884Y-46926366D01*
X172059000Y-47005250D01*
X172059000Y-47035786D01*
X172070649Y-47063910D01*
X172051536Y-47160000D01*
X172051536Y-47360000D01*
X172070649Y-47456090D01*
X172059000Y-47484214D01*
X172059000Y-47514750D01*
X172077248Y-47532998D01*
X172059000Y-47532998D01*
X172059000Y-47564369D01*
X170954730Y-46460100D01*
X170954730Y-45762268D01*
X171584731Y-46392270D01*
M02*
